<mxfile host="app.diagrams.net" modified="2024-05-15T22:55:50.123Z" agent="Mozilla/5.0 (Windows NT 10.0; Win64; x64) AppleWebKit/537.36 (KHTML, like Gecko) Chrome/124.0.0.0 Safari/537.36" etag="KCZH3s2ZV2v_rBsMPIgk" version="24.4.2" type="google">
  <diagram name="Page-1" id="oQFd3vofnM8hmiQsX_cb">
    <mxGraphModel grid="1" page="1" gridSize="10" guides="1" tooltips="1" connect="1" arrows="1" fold="1" pageScale="1" pageWidth="850" pageHeight="1100" math="0" shadow="0">
      <root>
        <mxCell id="0" />
        <mxCell id="1" parent="0" />
        <mxCell id="6Klqwcp9Yb6dLjk8BZ-0-1" value="" style="ellipse;whiteSpace=wrap;html=1;aspect=fixed;" vertex="1" parent="1">
          <mxGeometry x="385" y="60" width="80" height="80" as="geometry" />
        </mxCell>
        <mxCell id="6Klqwcp9Yb6dLjk8BZ-0-2" value="&lt;p class=&quot;MsoNormal&quot;&gt;&lt;strong&gt;&lt;span style=&quot;font-family:&amp;quot;Arial&amp;quot;,sans-serif;&lt;br/&gt;font-weight:normal&quot;&gt;Initial Research&lt;/span&gt;&lt;/strong&gt;&lt;/p&gt;" style="ellipse;whiteSpace=wrap;html=1;aspect=fixed;" vertex="1" parent="1">
          <mxGeometry x="-580" y="80" width="80" height="80" as="geometry" />
        </mxCell>
        <mxCell id="6Klqwcp9Yb6dLjk8BZ-0-3" value="&lt;p class=&quot;MsoNormal&quot;&gt;&lt;strong&gt;&lt;span style=&quot;font-family:&amp;quot;Arial&amp;quot;,sans-serif;&lt;br/&gt;font-weight:normal&quot;&gt;Environment Setup&lt;/span&gt;&lt;/strong&gt;&lt;/p&gt;" style="ellipse;whiteSpace=wrap;html=1;aspect=fixed;" vertex="1" parent="1">
          <mxGeometry x="-160" y="80" width="80" height="80" as="geometry" />
        </mxCell>
        <mxCell id="6Klqwcp9Yb6dLjk8BZ-0-4" value="&lt;p class=&quot;MsoNormal&quot;&gt;&lt;strong&gt;&lt;span style=&quot;font-family:&amp;quot;Arial&amp;quot;,sans-serif;&lt;br/&gt;font-weight:normal&quot;&gt;Library Installation&lt;/span&gt;&lt;/strong&gt;&lt;/p&gt;" style="ellipse;whiteSpace=wrap;html=1;aspect=fixed;" vertex="1" parent="1">
          <mxGeometry x="-300" y="80" width="80" height="80" as="geometry" />
        </mxCell>
        <mxCell id="6Klqwcp9Yb6dLjk8BZ-0-5" value="&lt;p class=&quot;MsoNormal&quot;&gt;&lt;strong&gt;&lt;span style=&quot;font-family:&amp;quot;Arial&amp;quot;,sans-serif;&lt;br/&gt;font-weight:normal&quot;&gt;Algorithm Choice (HOG)&lt;/span&gt;&lt;/strong&gt;&lt;/p&gt;" style="ellipse;whiteSpace=wrap;html=1;aspect=fixed;" vertex="1" parent="1">
          <mxGeometry x="-440" y="80" width="80" height="80" as="geometry" />
        </mxCell>
        <mxCell id="6Klqwcp9Yb6dLjk8BZ-0-6" value="" style="endArrow=classic;html=1;rounded=0;entryX=0;entryY=0.5;entryDx=0;entryDy=0;exitX=1;exitY=0.5;exitDx=0;exitDy=0;" edge="1" parent="1" source="6Klqwcp9Yb6dLjk8BZ-0-2" target="6Klqwcp9Yb6dLjk8BZ-0-5">
          <mxGeometry width="50" height="50" relative="1" as="geometry">
            <mxPoint x="-240" y="610" as="sourcePoint" />
            <mxPoint x="-190" y="560" as="targetPoint" />
          </mxGeometry>
        </mxCell>
        <mxCell id="6Klqwcp9Yb6dLjk8BZ-0-7" value="" style="endArrow=classic;html=1;rounded=0;entryX=0;entryY=0.5;entryDx=0;entryDy=0;exitX=1;exitY=0.5;exitDx=0;exitDy=0;" edge="1" parent="1" source="6Klqwcp9Yb6dLjk8BZ-0-5" target="6Klqwcp9Yb6dLjk8BZ-0-4">
          <mxGeometry width="50" height="50" relative="1" as="geometry">
            <mxPoint x="-240" y="610" as="sourcePoint" />
            <mxPoint x="-190" y="560" as="targetPoint" />
          </mxGeometry>
        </mxCell>
        <mxCell id="6Klqwcp9Yb6dLjk8BZ-0-8" value="" style="endArrow=classic;html=1;rounded=0;entryX=0;entryY=0.5;entryDx=0;entryDy=0;exitX=1;exitY=0.5;exitDx=0;exitDy=0;" edge="1" parent="1" source="6Klqwcp9Yb6dLjk8BZ-0-4" target="6Klqwcp9Yb6dLjk8BZ-0-3">
          <mxGeometry width="50" height="50" relative="1" as="geometry">
            <mxPoint x="-240" y="610" as="sourcePoint" />
            <mxPoint x="-190" y="560" as="targetPoint" />
          </mxGeometry>
        </mxCell>
        <mxCell id="6Klqwcp9Yb6dLjk8BZ-0-9" value="&lt;p class=&quot;MsoNormal&quot;&gt;&lt;strong&gt;&lt;span style=&quot;font-family:&amp;quot;Arial&amp;quot;,sans-serif&quot;&gt;Phase 1&lt;br/&gt;Initial Research and Setup&lt;/span&gt;&lt;/strong&gt;&lt;strong&gt;&lt;span style=&quot;font-family:&lt;br/&gt;&amp;quot;Arial&amp;quot;,sans-serif;font-weight:normal&quot;&gt;&lt;/span&gt;&lt;/strong&gt;&lt;/p&gt;" style="text;html=1;align=center;verticalAlign=middle;whiteSpace=wrap;rounded=0;" vertex="1" parent="1">
          <mxGeometry x="-420" y="30" width="180" height="30" as="geometry" />
        </mxCell>
        <mxCell id="6Klqwcp9Yb6dLjk8BZ-0-10" value="&lt;p class=&quot;MsoNormal&quot;&gt;&lt;strong&gt;&lt;span style=&quot;font-family:&amp;quot;Arial&amp;quot;,sans-serif;&lt;br/&gt;font-weight:normal&quot;&gt;Data Gathering&lt;/span&gt;&lt;/strong&gt;&lt;/p&gt;" style="ellipse;whiteSpace=wrap;html=1;aspect=fixed;" vertex="1" parent="1">
          <mxGeometry x="-580" y="270" width="80" height="80" as="geometry" />
        </mxCell>
        <mxCell id="6Klqwcp9Yb6dLjk8BZ-0-11" value="&lt;p class=&quot;MsoNormal&quot;&gt;&lt;strong&gt;&lt;span style=&quot;font-family:&amp;quot;Arial&amp;quot;,sans-serif;&lt;br/&gt;font-weight:normal&quot;&gt;Scenario Variety&lt;/span&gt;&lt;/strong&gt;&lt;/p&gt;" style="ellipse;whiteSpace=wrap;html=1;aspect=fixed;" vertex="1" parent="1">
          <mxGeometry x="-370" y="270" width="80" height="80" as="geometry" />
        </mxCell>
        <mxCell id="6Klqwcp9Yb6dLjk8BZ-0-12" value="&lt;p class=&quot;MsoNormal&quot;&gt;&lt;strong&gt;&lt;span style=&quot;font-family:&amp;quot;Arial&amp;quot;,sans-serif;&lt;br/&gt;font-weight:normal&quot;&gt;Data Analysis&lt;/span&gt;&lt;/strong&gt;&lt;/p&gt;" style="ellipse;whiteSpace=wrap;html=1;aspect=fixed;" vertex="1" parent="1">
          <mxGeometry x="-160" y="270" width="80" height="80" as="geometry" />
        </mxCell>
        <mxCell id="6Klqwcp9Yb6dLjk8BZ-0-14" value="&lt;p class=&quot;MsoNormal&quot;&gt;&lt;strong&gt;&lt;span style=&quot;font-family:&amp;quot;Arial&amp;quot;,sans-serif&quot;&gt;Phase 2&lt;br&gt;Data Acquisition&lt;/span&gt;&lt;/strong&gt;&lt;/p&gt;" style="text;html=1;align=center;verticalAlign=middle;whiteSpace=wrap;rounded=0;" vertex="1" parent="1">
          <mxGeometry x="-465" y="220" width="270" height="40" as="geometry" />
        </mxCell>
        <mxCell id="6Klqwcp9Yb6dLjk8BZ-0-17" value="" style="endArrow=classic;html=1;rounded=0;entryX=0.5;entryY=0;entryDx=0;entryDy=0;exitX=0.5;exitY=1;exitDx=0;exitDy=0;" edge="1" parent="1" source="6Klqwcp9Yb6dLjk8BZ-0-3" target="6Klqwcp9Yb6dLjk8BZ-0-10">
          <mxGeometry width="50" height="50" relative="1" as="geometry">
            <mxPoint x="-280" y="610" as="sourcePoint" />
            <mxPoint x="-230" y="560" as="targetPoint" />
            <Array as="points">
              <mxPoint x="-120" y="190" />
              <mxPoint x="-540" y="190" />
            </Array>
          </mxGeometry>
        </mxCell>
        <mxCell id="6Klqwcp9Yb6dLjk8BZ-0-18" value="" style="endArrow=classic;html=1;rounded=0;entryX=0;entryY=0.5;entryDx=0;entryDy=0;exitX=1;exitY=0.5;exitDx=0;exitDy=0;" edge="1" parent="1" source="6Klqwcp9Yb6dLjk8BZ-0-10" target="6Klqwcp9Yb6dLjk8BZ-0-11">
          <mxGeometry width="50" height="50" relative="1" as="geometry">
            <mxPoint x="-280" y="610" as="sourcePoint" />
            <mxPoint x="-230" y="560" as="targetPoint" />
          </mxGeometry>
        </mxCell>
        <mxCell id="6Klqwcp9Yb6dLjk8BZ-0-19" value="" style="endArrow=classic;html=1;rounded=0;entryX=0;entryY=0.5;entryDx=0;entryDy=0;exitX=1;exitY=0.5;exitDx=0;exitDy=0;" edge="1" parent="1" source="6Klqwcp9Yb6dLjk8BZ-0-11" target="6Klqwcp9Yb6dLjk8BZ-0-12">
          <mxGeometry width="50" height="50" relative="1" as="geometry">
            <mxPoint x="-280" y="610" as="sourcePoint" />
            <mxPoint x="-230" y="560" as="targetPoint" />
          </mxGeometry>
        </mxCell>
        <mxCell id="6Klqwcp9Yb6dLjk8BZ-0-21" value="" style="endArrow=classic;html=1;rounded=0;entryX=0.5;entryY=0;entryDx=0;entryDy=0;exitX=0.5;exitY=1;exitDx=0;exitDy=0;" edge="1" parent="1" source="6Klqwcp9Yb6dLjk8BZ-0-12" target="6Klqwcp9Yb6dLjk8BZ-0-22">
          <mxGeometry width="50" height="50" relative="1" as="geometry">
            <mxPoint x="-260" y="630" as="sourcePoint" />
            <mxPoint x="-210" y="580" as="targetPoint" />
            <Array as="points">
              <mxPoint x="-120" y="380" />
              <mxPoint x="-540" y="380" />
            </Array>
          </mxGeometry>
        </mxCell>
        <mxCell id="6Klqwcp9Yb6dLjk8BZ-0-22" value="&lt;p class=&quot;MsoNormal&quot;&gt;&lt;strong&gt;&lt;span style=&quot;font-family:&amp;quot;Arial&amp;quot;,sans-serif;&lt;br/&gt;font-weight:normal&quot;&gt;Algorithm Development&lt;/span&gt;&lt;/strong&gt;&lt;/p&gt;" style="ellipse;whiteSpace=wrap;html=1;aspect=fixed;" vertex="1" parent="1">
          <mxGeometry x="-580" y="450" width="80" height="80" as="geometry" />
        </mxCell>
        <mxCell id="6Klqwcp9Yb6dLjk8BZ-0-26" value="&lt;p class=&quot;MsoNormal&quot;&gt;&lt;strong&gt;&lt;span style=&quot;font-family:&amp;quot;Arial&amp;quot;,sans-serif;&lt;br/&gt;font-weight:normal&quot;&gt;Pattern Identification&lt;/span&gt;&lt;/strong&gt;&lt;/p&gt;" style="ellipse;whiteSpace=wrap;html=1;aspect=fixed;" vertex="1" parent="1">
          <mxGeometry x="-300" y="450" width="80" height="80" as="geometry" />
        </mxCell>
        <mxCell id="6Klqwcp9Yb6dLjk8BZ-0-27" value="&lt;p class=&quot;MsoNormal&quot;&gt;&lt;strong&gt;&lt;span style=&quot;font-family:&amp;quot;Arial&amp;quot;,sans-serif;&lt;br/&gt;font-weight:normal&quot;&gt;Video Analysis&lt;/span&gt;&lt;/strong&gt;&lt;/p&gt;" style="ellipse;whiteSpace=wrap;html=1;aspect=fixed;" vertex="1" parent="1">
          <mxGeometry x="-440" y="450" width="80" height="80" as="geometry" />
        </mxCell>
        <mxCell id="6Klqwcp9Yb6dLjk8BZ-0-28" value="&lt;p class=&quot;MsoNormal&quot;&gt;&lt;strong&gt;&lt;span style=&quot;font-family:&amp;quot;Arial&amp;quot;,sans-serif;&lt;br/&gt;font-weight:normal&quot;&gt;Effectiveness Testing&lt;/span&gt;&lt;/strong&gt;&lt;/p&gt;" style="ellipse;whiteSpace=wrap;html=1;aspect=fixed;" vertex="1" parent="1">
          <mxGeometry x="-170" y="450" width="80" height="80" as="geometry" />
        </mxCell>
        <mxCell id="6Klqwcp9Yb6dLjk8BZ-0-29" value="" style="endArrow=classic;html=1;rounded=0;entryX=0;entryY=0.5;entryDx=0;entryDy=0;exitX=1;exitY=0.5;exitDx=0;exitDy=0;" edge="1" parent="1" source="6Klqwcp9Yb6dLjk8BZ-0-22" target="6Klqwcp9Yb6dLjk8BZ-0-27">
          <mxGeometry width="50" height="50" relative="1" as="geometry">
            <mxPoint x="-280" y="610" as="sourcePoint" />
            <mxPoint x="-230" y="560" as="targetPoint" />
          </mxGeometry>
        </mxCell>
        <mxCell id="6Klqwcp9Yb6dLjk8BZ-0-30" value="" style="endArrow=classic;html=1;rounded=0;entryX=0;entryY=0.5;entryDx=0;entryDy=0;exitX=1;exitY=0.5;exitDx=0;exitDy=0;" edge="1" parent="1" source="6Klqwcp9Yb6dLjk8BZ-0-27" target="6Klqwcp9Yb6dLjk8BZ-0-26">
          <mxGeometry width="50" height="50" relative="1" as="geometry">
            <mxPoint x="-270" y="620" as="sourcePoint" />
            <mxPoint x="-220" y="570" as="targetPoint" />
          </mxGeometry>
        </mxCell>
        <mxCell id="6Klqwcp9Yb6dLjk8BZ-0-31" value="" style="endArrow=classic;html=1;rounded=0;entryX=0;entryY=0.5;entryDx=0;entryDy=0;exitX=1;exitY=0.5;exitDx=0;exitDy=0;" edge="1" parent="1" source="6Klqwcp9Yb6dLjk8BZ-0-26" target="6Klqwcp9Yb6dLjk8BZ-0-28">
          <mxGeometry width="50" height="50" relative="1" as="geometry">
            <mxPoint x="-260" y="630" as="sourcePoint" />
            <mxPoint x="-210" y="580" as="targetPoint" />
          </mxGeometry>
        </mxCell>
        <mxCell id="6Klqwcp9Yb6dLjk8BZ-0-32" value="&lt;p class=&quot;MsoNormal&quot;&gt;&lt;strong&gt;&lt;span style=&quot;font-family:&amp;quot;Arial&amp;quot;,sans-serif;&lt;br/&gt;font-weight:normal&quot;&gt;Phase 3 Experimentation&lt;/span&gt;&lt;/strong&gt;&lt;/p&gt;" style="text;html=1;align=center;verticalAlign=middle;whiteSpace=wrap;rounded=0;" vertex="1" parent="1">
          <mxGeometry x="-400" y="410" width="140" height="30" as="geometry" />
        </mxCell>
        <mxCell id="6Klqwcp9Yb6dLjk8BZ-0-33" value="&lt;p class=&quot;MsoNormal&quot;&gt;&lt;strong&gt;&lt;span style=&quot;font-family:&amp;quot;Arial&amp;quot;,sans-serif;&lt;br/&gt;font-weight:normal&quot;&gt;Accuracy Assessment&lt;/span&gt;&lt;/strong&gt;&lt;/p&gt;" style="ellipse;whiteSpace=wrap;html=1;aspect=fixed;" vertex="1" parent="1">
          <mxGeometry x="-580" y="650" width="80" height="80" as="geometry" />
        </mxCell>
        <mxCell id="6Klqwcp9Yb6dLjk8BZ-0-34" value="&lt;p class=&quot;MsoNormal&quot;&gt;&lt;strong&gt;&lt;span style=&quot;font-family:&amp;quot;Arial&amp;quot;,sans-serif;&lt;br/&gt;font-weight:normal&quot;&gt;Algorithm Enhancement&lt;/span&gt;&lt;/strong&gt;&lt;/p&gt;" style="ellipse;whiteSpace=wrap;html=1;aspect=fixed;" vertex="1" parent="1">
          <mxGeometry x="-170" y="650" width="80" height="80" as="geometry" />
        </mxCell>
        <mxCell id="6Klqwcp9Yb6dLjk8BZ-0-35" value="&lt;p class=&quot;MsoNormal&quot;&gt;&lt;strong&gt;&lt;span style=&quot;font-family:&amp;quot;Arial&amp;quot;,sans-serif;&lt;br/&gt;font-weight:normal&quot;&gt;Identify Challenges&lt;/span&gt;&lt;/strong&gt;&lt;/p&gt;" style="ellipse;whiteSpace=wrap;html=1;aspect=fixed;" vertex="1" parent="1">
          <mxGeometry x="-300" y="650" width="80" height="80" as="geometry" />
        </mxCell>
        <mxCell id="6Klqwcp9Yb6dLjk8BZ-0-36" value="&lt;p class=&quot;MsoNormal&quot;&gt;&lt;strong&gt;&lt;span style=&quot;font-family:&amp;quot;Arial&amp;quot;,sans-serif;&lt;br/&gt;font-weight:normal&quot;&gt;Performance Testing&lt;/span&gt;&lt;/strong&gt;&lt;/p&gt;" style="ellipse;whiteSpace=wrap;html=1;aspect=fixed;" vertex="1" parent="1">
          <mxGeometry x="-440" y="650" width="80" height="80" as="geometry" />
        </mxCell>
        <mxCell id="6Klqwcp9Yb6dLjk8BZ-0-37" value="&lt;p class=&quot;MsoNormal&quot;&gt;&lt;strong&gt;&lt;span style=&quot;font-family:&amp;quot;Arial&amp;quot;,sans-serif;&lt;br/&gt;font-weight:normal&quot;&gt;Phase 4 Evaluation&lt;/span&gt;&lt;/strong&gt;&lt;/p&gt;" style="text;html=1;align=center;verticalAlign=middle;whiteSpace=wrap;rounded=0;" vertex="1" parent="1">
          <mxGeometry x="-385" y="610" width="110" height="30" as="geometry" />
        </mxCell>
        <mxCell id="6Klqwcp9Yb6dLjk8BZ-0-38" value="" style="endArrow=classic;html=1;rounded=0;entryX=0.5;entryY=0;entryDx=0;entryDy=0;exitX=0.5;exitY=1;exitDx=0;exitDy=0;" edge="1" parent="1" source="6Klqwcp9Yb6dLjk8BZ-0-28" target="6Klqwcp9Yb6dLjk8BZ-0-33">
          <mxGeometry width="50" height="50" relative="1" as="geometry">
            <mxPoint x="-280" y="610" as="sourcePoint" />
            <mxPoint x="-230" y="560" as="targetPoint" />
            <Array as="points">
              <mxPoint x="-130" y="560" />
              <mxPoint x="-540" y="560" />
            </Array>
          </mxGeometry>
        </mxCell>
        <mxCell id="6Klqwcp9Yb6dLjk8BZ-0-40" value="" style="endArrow=classic;html=1;rounded=0;entryX=0;entryY=0.5;entryDx=0;entryDy=0;exitX=1;exitY=0.5;exitDx=0;exitDy=0;" edge="1" parent="1" source="6Klqwcp9Yb6dLjk8BZ-0-33" target="6Klqwcp9Yb6dLjk8BZ-0-36">
          <mxGeometry width="50" height="50" relative="1" as="geometry">
            <mxPoint x="-280" y="610" as="sourcePoint" />
            <mxPoint x="-230" y="570" as="targetPoint" />
          </mxGeometry>
        </mxCell>
        <mxCell id="6Klqwcp9Yb6dLjk8BZ-0-41" value="" style="endArrow=classic;html=1;rounded=0;entryX=0;entryY=0.5;entryDx=0;entryDy=0;exitX=1;exitY=0.5;exitDx=0;exitDy=0;" edge="1" parent="1" source="6Klqwcp9Yb6dLjk8BZ-0-36" target="6Klqwcp9Yb6dLjk8BZ-0-35">
          <mxGeometry width="50" height="50" relative="1" as="geometry">
            <mxPoint x="-270" y="620" as="sourcePoint" />
            <mxPoint x="-220" y="570" as="targetPoint" />
          </mxGeometry>
        </mxCell>
        <mxCell id="6Klqwcp9Yb6dLjk8BZ-0-42" value="" style="endArrow=classic;html=1;rounded=0;entryX=0;entryY=0.5;entryDx=0;entryDy=0;exitX=1;exitY=0.5;exitDx=0;exitDy=0;" edge="1" parent="1" source="6Klqwcp9Yb6dLjk8BZ-0-35" target="6Klqwcp9Yb6dLjk8BZ-0-34">
          <mxGeometry width="50" height="50" relative="1" as="geometry">
            <mxPoint x="-260" y="630" as="sourcePoint" />
            <mxPoint x="-210" y="580" as="targetPoint" />
          </mxGeometry>
        </mxCell>
      </root>
    </mxGraphModel>
  </diagram>
</mxfile>
